<svg id="Layer_1" data-name="Layer 1" xmlns="http://www.w3.org/2000/svg" xmlns:xlink="http://www.w3.org/1999/xlink" viewBox="0 0 512 512"><defs><clipPath id="clip-path"><rect x="7.6373" y="32.5217" width="496.7254" height="446.9565" fill="none"/></clipPath><clipPath id="clip-path-2"><rect x="7.6373" y="32.5218" width="496.7254" height="446.9565" fill="none"/></clipPath><clipPath id="clip-path-3"><path d="M35.8816,390.8854a38.634,38.634,0,1,0,38.6339-38.6375,38.6338,38.6338,0,0,0-38.6339,38.6375" fill="none"/></clipPath><linearGradient id="linear-gradient" x1="-6.3333" y1="-14.7848" x2="-2.7494" y2="-14.7848" gradientTransform="matrix(27.0434, 0, 0, -27.0434, 183.5728, -8.9475)" gradientUnits="userSpaceOnUse"><stop offset="0" stop-color="#dcddde"/><stop offset="1" stop-color="#0f4c81"/></linearGradient><clipPath id="clip-path-4"><path d="M179.4937,292.1647a57.9509,57.9509,0,1,0,57.9473-57.9509,57.95,57.95,0,0,0-57.9473,57.9509" fill="none"/></clipPath><linearGradient id="linear-gradient-2" x1="-3.1813" y1="-9.1799" x2="0.4025" y2="-9.1799" gradientTransform="matrix(41.4546, 0, 0, -41.4546, 272.5231, -88.3845)" xlink:href="#linear-gradient"/><clipPath id="clip-path-5"><path d="M417.4364,32.5218a86.9245,86.9245,0,1,0,86.9228,86.9263A86.9193,86.9193,0,0,0,417.4364,32.5218Z" fill="none"/></clipPath><linearGradient id="linear-gradient-3" x1="-1.1584" y1="-4.9671" x2="2.4255" y2="-4.9671" gradientTransform="matrix(74.7992, 0, 0, -74.7992, 319.0717, -252.0879)" xlink:href="#linear-gradient"/></defs><g id="Artwork_1" data-name="Artwork 1"><g clip-path="url(#clip-path)"><g clip-path="url(#clip-path-2)"><path d="M417.4375,225.0234v37.1573c-5.8632,8.72-11.8662,17.5753-18.5823,26.008a484.5248,484.5248,0,0,1-43.5868,48.3785,548.2315,548.2315,0,0,1-102.3942,78.6691c-36.7309,22.3668-76.673,39.7306-118.1883,50.3782A436.1423,436.1423,0,0,1,7.6383,479.1185a433.5445,433.5445,0,0,0,125.6176-18.65,429.267,429.267,0,0,0,113.902-54.3025,536.1565,536.1565,0,0,0,96.678-80.8876,463.7007,463.7007,0,0,0,39.942-48.235c11.7909-16.2205,21.2953-34.2258,33.66-52.02" fill="#080424"/></g><g clip-path="url(#clip-path-3)"><rect x="23.1089" y="339.4753" width="102.8132" height="102.8132" transform="translate(-159.3384 68.9291) rotate(-25.2001)" fill="url(#linear-gradient)"/></g><g clip-path="url(#clip-path-4)"><rect x="156.5035" y="211.2235" width="161.8822" height="161.8823" transform="translate(-126.3461 195.2292) rotate(-35.9786)" fill="url(#linear-gradient-2)"/></g><g clip-path="url(#clip-path-5)"><rect x="294.573" y="-3.417" width="245.7268" height="245.7266" transform="translate(44.8693 342.4134) rotate(-46.867)" fill="url(#linear-gradient-3)"/></g></g></g></svg>