<svg id="Layer_1" data-name="Layer 1" xmlns="http://www.w3.org/2000/svg" viewBox="0 0 512 512"><path d="M257.2023,153.0393l-21.134-.28c-33.24.0031-58.2973.1652-70.9973,0a93.5678,93.5678,0,0,0-19.4751,2.1367c-7.9215,1.6969-11.3054,3.4942-13.5734,5.0074a29.9541,29.9541,0,0,0-9.2659,9.81,25.1,25.1,0,0,0-3.7366,13.8033,21.16,21.16,0,0,0,2.1849,8.9618c1.7356,3.3748,4.7909,6.68,16.6161,12.0774a135.3781,135.3781,0,0,0,19.7147,7.3932q10.974,3.14,21.7305,6.7209,43.0139,14.3453,62.9524,38.3094,19.9306,23.9736,19.938,62.5032,0,25.9906-8.7365,47.0459a98.1266,98.1266,0,0,1-25.5387,36.0691q-16.8021,15.0168-41.222,23.2983c-.563.1911-1.2622.4258-2.1157.6943-17.6022,5.5381-32.8942,6.93-53.2189,7.5945s-30.5023.2742-50.594,0c-22.793-.3111-27.3962.351-55.5988-.0176-4.8309-.0632-8.776-.1345-11.28-.1833V358.5846c5.244-.0382,10.0713-.06,14.4218-.07,6.0192-.0145,10.5949-.0072,14.8418,0,5.2194.0089,10.0245.026,14.353.047l8.61.023H75.6q11.3726.4669,23.3129.63,11.0533.1437,21.6327,0a62.5031,62.5031,0,0,0,19.6024-2.31c6.1366-1.7475,12.1324-3.44,17.4663-8.8735a31.1254,31.1254,0,0,0,6.6167-10.4489,31.9841,31.9841,0,0,0,1.2133-19.0087A31.6277,31.6277,0,0,0,154.911,302.319c-3.3074-2.821-6.3473-4.2975-13.0572-7.0316-13.6788-5.5738-24.4081-8.9579-24.4185-8.9611q-17.034-5.3754-33.3811-11.8738a104.86,104.86,0,0,1-29.1236-17.25,80.0711,80.0711,0,0,1-20.61-27.1065q-7.8432-16.3513-7.841-41.4452,0-25.0895,8.2887-45.478a101.0348,101.0348,0,0,1,23.3-34.949c14.1507-13.726,28.6033-19.4792,36.74-22.6259a122.53,122.53,0,0,1,48.4412-8.0727h76.4494l37.3846,0Z" fill="#243665"/><path d="M254.9169,77.5252l37.3846,0h76.4494a122.53,122.53,0,0,1,48.4412,8.0727c8.1368,3.1467,22.5894,8.9,36.74,22.6259a101.0348,101.0348,0,0,1,23.3,34.949q8.296,20.3922,8.2887,45.478,0,25.0982-7.841,41.4452a80.0711,80.0711,0,0,1-20.61,27.1065,104.86,104.86,0,0,1-29.1236,17.25q-16.3515,6.502-33.3811,11.8738c-.01.0032-10.74,3.3873-24.4185,8.9611-6.71,2.7341-9.75,4.2106-13.0572,7.0316a31.6277,31.6277,0,0,0-10.5332,16.2543,31.9841,31.9841,0,0,0,1.2133,19.0087,31.1254,31.1254,0,0,0,6.6167,10.4489c5.3339,5.433,11.33,7.126,17.4663,8.8735a62.5031,62.5031,0,0,0,19.6024,2.31q10.5758.1376,21.6327,0,11.9362-.1553,23.3129-.63h9.5211l8.61-.023c4.3285-.021,9.1336-.0381,14.353-.047,4.2469-.0072,8.8226-.0145,14.8418,0,4.35.0105,9.1778.0318,14.4218.07v75.3993c-2.5037.0488-6.4488.12-11.28.1833-28.2026.3686-32.8058-.2935-55.5988.0176-20.0917.2742-30.2691.664-50.594,0s-35.6167-2.0564-53.2189-7.5945c-.8535-.2685-1.5527-.5032-2.1157-.6943q-24.4155-8.2851-41.222-23.2983A98.1266,98.1266,0,0,1,258.58,366.5286q-8.738-21.0552-8.7365-47.0459,0-38.5289,19.938-62.5032,19.9414-23.9649,62.9524-38.3094,10.7529-3.5814,21.7305-6.7209a135.3781,135.3781,0,0,0,19.7147-7.3932c11.8252-5.3974,14.8805-8.7026,16.6161-12.0774a21.16,21.16,0,0,0,2.1849-8.9618,25.1,25.1,0,0,0-3.7366-13.8033,29.9541,29.9541,0,0,0-9.2659-9.81c-2.268-1.5132-5.6519-3.31-13.5734-5.0074a93.5678,93.5678,0,0,0-19.4751-2.1367c-12.7.1652-37.7568.0031-70.9973,0l-21.134.28Z" fill="#243665"/><path d="M303.6881,281.7152l-96.6295.16-31.3814,77.5961c-2.52-.0333-6.2977-.0689-10.9184-.0561-3.2808.009-5.0556.0371-7.6687.0561-3.4987.0255-8.5005.0349-14.7019-.0469-10.1449.0493-12.4925-.232-12.508-.5267-.0257-.4875,96.5083-202.8869,127.976-281.4487,0,0,122.9589,281.5841,125.8517,282.0223H335.192Zm-12.5217-43.5411q-16.901-42.858-33.8021-85.716-18.1244,42.9491-36.2486,85.8982l2.3967,1.5284a113.1146,113.1146,0,0,1,10.7015,8.71c2.7238,2.5253,4.7507,4.6981,5.5341,5.55,1.5977,1.7376,2.6061,2.9655,2.9278,3.36,1.254,1.5385,2.1623,2.7914,2.7436,3.5958,1.0156,1.4053,1.7346,2.4886,1.9469,2.81.34.5148,1.022,1.5606,1.8412,2.9278.3737.6236.858,1.4509,1.4018,2.4348.5136.9291,1.3576,2.5,2.3064,4.5.2875.6061.8552,1.8055,1.4849,3.3165.2979.715.5923,1.4578.7434,1.8389.2979.7515.49,1.2552.6234,1.6092.0915.2433.1677.4486.2232.5992l.1338-.3139.0876-.2365.1257-.3473c.0469-.1192.1112-.2827.1582-.4019q.2851-.7239.5728-1.4479c.152-.3771.3432-.8471.5672-1.3868.3714-.8952.6622-1.5716.7468-1.7674.5324-1.2329.9759-2.2043,1.3051-2.9235.9835-2.1489,1.4752-3.2234,2.1878-4.5248.9309-1.7,1.7529-2.946,2.0478-3.3861a70.684,70.684,0,0,1,5.0551-6.29c2.69-3.2191,2.23-2.7869,3.284-3.9754a72.0953,72.0953,0,0,1,5.5369-5.5531c.9412-.8667,3.5113-3.2,7.1271-5.97C287.233,240.8449,289.35,239.3706,291.1664,238.1741Z" fill="#8bd8bd"/></svg>